<svg xmlns="http://www.w3.org/2000/svg" width="525" height="215" viewBox="0 0 5725 2215"><g fill="#0a70a3"><path d="M1512.5 111.105c-6.6.402-42.201 1.053-79.114 1.448l-67.115.718-1.694 2.867c-1.583 2.681-1.593 4.713-.149 31.115 5.216 95.363 5.978 134.557 6.026 309.747.029 105.964-.357 167.479-1.193 190.5-.679 18.7-1.769 48.987-2.421 67.304l-1.187 33.304 2.592 2.592 2.592 2.592 35.832-1.158c19.707-.638 55.655-1.153 79.885-1.147l44.054.013 3.084-3.25 3.085-3.25-1.333-24.5c-2.739-50.359-3.547-77.397-4.452-149-1.226-96.995.831-347.838 3.57-435.35l.621-19.85-2.779-2.9c-1.829-1.909-3.654-2.836-5.341-2.713-1.41.104-7.963.516-14.563.918m120.24 4.645-2.634 2.75 1.39 23c4.388 72.627 5.466 131.975 5.468 301 .001 129.739-.54 176.754-3.043 264.247l-1.151 40.246 2.365 1.97c2.335 1.946 4.861 1.971 200.705 2.004l198.34.033 3.832-2.75c3.063-2.198 3.938-3.553 4.361-6.75.291-2.2 1.774-27.005 3.295-55.122l2.765-51.121-2.677-3.51c-2.45-3.212-3.041-3.478-6.967-3.125-6.146.552-65.615 3.223-96.789 4.347-14.575.526-53.335 1.267-86.132 1.648l-59.633.693-.599-26.405c-.329-14.523-.867-50.142-1.196-79.155l-.597-52.75h211.765l3.06-3.25 3.061-3.25 2.609-50.326 2.61-50.326-2.162-2.924c-2.615-3.537 8.036-3.387-101.286-1.422-44.55.8-89.662 1.465-100.25 1.477L1794 367V223.802l66.75.633c36.713.348 88.752 1.106 115.642 1.684l48.893 1.051 2.601-2.601 2.601-2.601 3.136-52.234 3.137-52.234-2.054-2.25-2.055-2.25h-397.277zm488.881.288c-1.772 2.106-2.427 3.87-2.135 5.75.435 2.799.543 4.669 2.993 51.712 5.198 99.802 5.708 366.032 1.002 523l-1.499 50 2.565 2.25 2.565 2.25h396.494l3.979-2.927 3.98-2.926 2.781-50.324c1.53-27.677 3.029-52.411 3.332-54.963.505-4.258.274-4.925-2.814-8.107l-3.364-3.466-34 1.751c-53.318 2.746-91.395 3.884-154.129 4.607l-58.128.67-.609-53.907c-.335-29.65-.819-65.27-1.077-79.158l-.469-25.25 105.706-.027 105.706-.027 3.184-2.723 3.184-2.723 2.577-48.5c1.417-26.675 2.572-49.712 2.566-51.194s-1.036-3.886-2.288-5.342l-2.277-2.647-93.973 1.601c-51.685.881-100.836 1.597-109.223 1.592L2283 367V224l16.75.029c29.026.049 169.747 1.851 193.25 2.474l22.5.597 2.114-2.8c1.981-2.625 2.313-6.084 5.3-55.258l3.187-52.457-2.3-1.77c-2.183-1.68-12.45-1.772-200.962-1.793L2124.178 113zm489.935-.096-2.819 2.941 1.649 28.809c2.853 49.844 3.628 74.796 4.608 148.308 1.883 141.165.988 291.907-2.412 406l-1.326 44.5 2.622 2.245 2.622 2.245 198.5-.01 198.5-.01 3.689-3.235 3.688-3.235 3.128-54.917 3.128-54.916-3.316-3.164-3.317-3.164-24 1.245c-66.046 3.428-134.79 5.33-194.75 5.389L2774 635l-.132-30.75c-.073-16.913-.411-52.463-.75-79.001l-.618-48.251 105.734.001 105.734.001 3.074-2.75 3.074-2.75 2.665-51.254 2.665-51.255-2.586-2.585-2.585-2.586-93.888 1.6c-51.638.88-100.75 1.595-109.137 1.59L2772 367V224l17.75.031c33.922.061 168.888 1.863 191.826 2.563l23.076.703 2.211-3.105c2.1-2.949 2.371-5.728 5.399-55.257l3.188-52.152-2.336-1.892c-2.273-1.841-7.618-1.891-200.538-1.891h-198.202zM825.5 341.634c-170.597 10.38-311.571 65.355-427.209 166.596-5.687 4.979-10.144 9.25-9.904 9.49s5.539-1.213 11.775-3.23c40.751-13.182 89.52-23.507 134.338-28.441 50.559-5.565 102.963-5.556 153 .027 111.688 12.463 215.928 50.957 311.835 115.155 45.228 30.275 99.055 77.352 131.079 114.643l8.91 10.374 5.66-.513c5.596-.507 12.659-3.347 14.705-5.912.58-.728 8.804-27.423 18.274-59.323s27.551-92.639 40.178-134.974c24.516-82.197 24.284-81.174 19.781-86.898-4.281-5.442-48.094-29.645-78.948-43.613-56.559-25.604-102.822-37.796-179.974-47.43-40.575-5.067-52.953-5.807-101.5-6.068-25.3-.137-48.7-.084-52 .117m2762.5 38.06c-51.594 3.041-104.879 12.769-148.5 27.112-89.149 29.312-162.188 82.728-209.499 153.214-51.075 76.094-74.778 177.079-62.454 266.087 11.385 82.227 52.745 147.488 128.953 203.474 24.98 18.351 42.67 29.244 115.5 71.121 27.775 15.971 55.871 32.285 62.436 36.253 53.904 32.584 76.744 55.566 86.221 86.757 2.348 7.727 2.677 10.539 2.729 23.288.067 16.435-1.184 22.758-7.338 37.095-5.242 12.214-12.039 21.958-23.014 32.988-24.074 24.198-55.963 37.996-103.034 44.584-17.659 2.471-61.82 2.463-81.99-.015-63.804-7.839-119.166-27.232-165.005-57.799-22.468-14.983-35.679-26.354-54.591-46.987l-7.914-8.634-9.088 2.497-9.088 2.496-34.347 124.976-34.348 124.976 1.704 6.395c2.994 11.236 2.354 10.568 19.357 20.212 31.451 17.839 55.672 28.752 89.81 40.464 67.729 23.237 142.184 37.357 226 42.861 23.613 1.551 86.352 1.553 108.5.004 95.774-6.698 173.714-26.705 243.5-62.505 104.856-53.79 175.712-139.298 204.352-246.608 12.729-47.697 16.907-106.315 10.703-150.196-12.114-85.696-59.5-156.691-145.024-217.279-26.002-18.422-49.662-32.497-110.531-65.758-70.105-38.308-96.42-55.856-119.018-79.365-13.842-14.401-22.07-28-26.176-43.266-2.909-10.813-2.914-32.439-.011-43.229 10.33-38.393 45.116-67.107 93.159-76.898 52.204-10.638 124.771 2.539 188.136 34.164 31.838 15.89 53.552 31.741 89.221 65.132l11.541 10.804 8.324-2.549 8.324-2.55 35.199-125.755 35.199-125.755-4.199-6.201-4.199-6.202-21.282-10.096c-40.368-19.151-65.32-29.38-100.218-41.085-64.574-21.658-125.109-33.393-195.483-37.894-14.347-.917-78.646-1.145-92.517-.328M621.5 561.596c-2.75.194-11.975.837-20.5 1.427-92.437 6.407-180.018 30.053-248.147 66.997C265.294 677.501 201.91 747.539 165.99 836.5c-20.11 49.806-33.1 96.834-39.911 144.5-8.801 61.583-8.799 136.964.004 199 27.654 194.868 142 342.067 320.417 412.474 71.671 28.283 147.445 42.834 235 45.127 68.195 1.785 156.391-7.616 217.251-23.159 24.705-6.31 60.124-18.551 90.702-31.349 16.014-6.702 19.943-10.812 24.18-25.299 4.209-14.39 20.394-76.071 45.864-174.794 13.551-52.525 25.265-97.657 26.03-100.293 1.685-5.806.94-8.212-3.845-12.413-4.205-3.692-9.814-5.718-13.688-4.943-1.554.311-8.376 4.673-15.16 9.693-63.221 46.783-139.968 77.47-210.139 84.024-18.431 1.721-56.478.69-73.017-1.978-114.107-18.412-190.324-95.511-211.642-214.09-10.294-57.255-8.351-135.651 5.08-205 30.482-157.397 120.19-268.157 250.904-309.784 35.462-11.294 80.383-17.313 116.98-15.677 8.525.382 15.25.429 14.944.105-1.326-1.406-29.139-11.943-46.029-17.44-48.329-15.727-104.366-26.467-165.915-31.798-17.18-1.488-98.522-2.797-112.5-1.81M2271 881.573c-77.657 14.948-129.425 23.686-198.5 33.507l-42 5.972-4.404 4.391-4.404 4.391-6.296 44.109c-16.955 118.789-30.766 187.265-70.4 349.057-64.224 262.174-65.198 266.257-64.004 268.435.622 1.136 2.153 3.328 3.402 4.871l2.271 2.806 126.917-2.56c69.805-1.408 128.28-2.559 129.945-2.556 2.152.003 4.404-1.225 7.787-4.246l4.759-4.25 29.009-140c24.573-118.59 71.229-333.087 73.674-338.711 2.487-5.72 29.195-20.962 42.744-24.394 10.716-2.714 32.033-2.486 39.919.427 15.822 5.845 25.442 16.915 29.704 34.178 1.867 7.561 1.607 28.867-.523 42.963-1.816 12.024-24.514 125.214-29.083 145.037-2.04 8.849-57.74 248.155-64.868 278.694-1.422 6.092-1.405 6.248 1.02 9.5 1.357 1.818 2.806 3.895 3.221 4.614.62 1.075 23.656.84 129.104-1.316l128.349-2.624 4.578-4.028 4.579-4.027 24.126-117.157c13.269-64.436 29.632-142.131 36.363-172.656 9.291-42.141 15.069-71.699 24.004-122.796 6.471-37.013 11.933-67.419 12.137-67.568 4.644-3.406 17.887-11.025 26.37-15.172 37.39-18.278 73.129-12.008 86.849 15.236 8.939 17.75 8.854 38.824-.345 85.8-9.577 48.905-26.086 121.623-63.646 280.337-15.842 66.944-27.282 117.255-26.943 118.5.323 1.19 1.833 3.651 3.356 5.469l2.769 3.306 128.935-2.621c70.915-1.442 129.458-2.93 130.097-3.306.639-.377 2.875-2.202 4.968-4.056l3.806-3.371 27.739-138.629c25.13-125.585 49.798-240.729 62.025-289.516 11.995-47.86 17.241-90.225 14.936-120.613-2.528-33.338-11.148-60.251-26.901-84-7.741-11.669-26.144-29.982-38.103-37.916-23.686-15.714-50.557-25.63-83.501-30.814-15.719-2.473-55.504-2.443-71.541.054-57.334 8.928-107.94 31.622-170.937 76.658-17.17 12.275-18.178 12.845-18.979 10.741-8.617-22.638-18.912-38.674-34.213-53.291-9.702-9.269-17.04-14.489-28.371-20.182-58.411-29.346-143.412-18.471-226.368 28.963-14.255 8.151-27.184 17.079-41.523 28.673C2288.34 969.04 2288 969.293 2288 968.221c0-.519 3.825-18.619 8.5-40.221s8.5-40.033 8.5-40.958c0-2.754-6.868-10.058-9.328-9.921-1.195.067-12.297 2.07-24.672 4.452m-737.356 2.516c-53.71 3.072-103.204 14.381-146.544 33.483-24.581 10.834-47.284 24.447-70.119 42.042-15.596 12.018-46.152 42.721-57.684 57.962-51.815 68.482-85.353 156.706-96.899 254.906-2.182 18.551-2.954 61.85-1.45 81.22 3.959 50.969 17.101 96.47 37.994 131.544C1248.913 1569.134 1342.05 1612 1474.347 1612c147.722 0 259.882-52.57 328.561-154q31.643-46.732 53.557-114.052c18.358-56.393 25.004-101.924 25.024-171.448.009-31.005-.321-40.485-1.792-51.5-9.412-70.471-33.526-122.672-75.317-163.045-15.114-14.602-28.437-24.413-47.956-35.316-51.178-28.585-137.087-43.451-222.78-38.55m2821-.077c-124.881 7.833-219.063 55.989-282.613 144.505-48.577 67.661-82.071 163.302-89.995 256.983-1.306 15.436-1.326 57.795-.034 72 7.555 83.074 36.439 143.855 89.498 188.333 36.737 30.796 88.583 52.113 148.5 61.057 25.77 3.847 38.451 4.605 76.5 4.571 39.785-.035 56.245-1.198 85.956-6.07 126.559-20.755 220.088-89.797 270.785-199.891 16.198-35.175 31.715-81.595 38.753-115.934 10.777-52.578 14.039-129.754 7.421-175.566-6.469-44.775-21.318-86.407-41.909-117.498-22.694-34.268-54.592-61.99-92.006-79.963-32.035-15.39-78.431-26.564-131-31.552-15.196-1.442-63.084-2.026-79.856-.975m785.356.047c-89.963 6.152-168.766 35.28-231.5 85.569-14.362 11.513-40.219 36.871-52.383 51.372-50.986 60.782-82.703 135.347-93.794 220.5-1.485 11.408-1.818 20.851-1.793 51 .026 32.915.283 38.877 2.33 54 4.745 35.058 11.815 62.946 22.796 89.921 38.606 94.84 117.612 152.878 230.844 169.577 23.299 3.436 38.514 4.409 68.5 4.38 51.579-.051 87.488-5.784 142.233-22.71 16.199-5.008 18.184-5.878 22.96-10.055l5.228-4.574 8.778-39.269c10.39-46.482 18.867-81.023 29.245-119.169 4.175-15.345 7.47-27.976 7.323-28.07-1.38-.88-11.336-4.531-12.354-4.531-.726 0-5.279 2.837-10.117 6.305-32.098 23.008-61.021 34.377-95.796 37.656-81.495 7.685-134.91-31.014-149.017-107.961-2.292-12.501-3.126-47.854-1.53-64.833 5.54-58.918 26.529-107.57 61.547-142.658 14.229-14.258 26.633-23.339 43-31.482 23.118-11.503 39.628-15.388 65.5-15.414 18.758-.02 28.266 1.292 42.927 5.924 22.607 7.141 48.489 25.579 66.582 47.434l5.991 7.235 6.392-.579c3.516-.318 6.599-.785 6.852-1.037.252-.253 11.842-39.886 25.754-88.073l25.295-87.614-1.333-5.055c-.733-2.78-1.489-5.21-1.679-5.4-1.053-1.053-24.573-14.326-31.972-18.043-34.392-17.276-76.057-28.404-123.309-32.933-19.68-1.886-65.289-2.658-83.5-1.413m347.216 54.895c-18.062 4.892-34.171 17.925-42.081 34.046-9.524 19.409-9.497 41.132.076 60.757 4.917 10.08 17.73 22.675 28.502 28.017 11.558 5.732 20.935 7.635 34.19 6.937 27.704-1.458 49.328-17.564 58.909-43.876 2.434-6.686 2.671-8.619 2.671-21.835s-.237-15.149-2.671-21.835c-7.143-19.618-21.594-34.099-40.594-40.678-10.754-3.725-28.357-4.416-39.002-1.533m3.784 5.537c-21.528 4.869-39.922 23.012-45.125 44.509-2.087 8.625-1.674 23.228.89 31.5 8.19 26.413 33.542 43.875 61.235 42.178 36.947-2.265 62.315-36.211 54.527-72.965-4.177-19.712-19.96-37.306-39.106-43.591-8.867-2.911-23.505-3.647-32.421-1.631m-15 58.009v41.5h15v-37.263l7.566.486c8.143.522 11.901 2.354 14.129 6.888.657 1.337 2.077 7.371 3.155 13.41 3.077 17.229 2.502 16.479 12.625 16.479 4.689 0 8.525-.17 8.525-.378s-.727-2.118-1.616-4.244c-.888-2.127-2.485-8.819-3.548-14.872-2.261-12.868-4.101-17.157-8.665-20.196l-3.329-2.217 3.829-1.6c13.629-5.693 16.655-22.319 6.056-33.27-5.11-5.28-10.174-6.223-33.409-6.223H5476zm15-18.389v11.11l10.75-.436c11.875-.481 15.658-1.74 17.825-5.93 2.626-5.077.869-12.477-3.52-14.825-1.058-.567-7.128-1.03-13.489-1.03H5491zm-3941.237 62.854c-49.989 9.13-85.903 69.399-111.156 186.535-17.012 78.913-21.067 139.117-11.518 171 3.155 10.531 9.272 21.506 15.468 27.752 6.097 6.146 16.108 11.815 24.443 13.841 7.732 1.879 25.01 1.612 33-.511 42.479-11.288 74.74-61.796 97.572-152.761 9.08-36.176 17.421-82.658 20.873-116.321 5.24-51.108 3.433-76.758-6.911-98.068-9.926-20.45-25.669-30.914-48.028-31.925-4.953-.224-11.137-.017-13.743.458m2823.737-.407c-1.1.254-4.475.956-7.5 1.56s-8.803 2.614-12.84 4.467c-29.896 13.72-54.742 49.44-73.604 105.817-15.746 47.063-29.61 113.24-35.111 167.595-2.275 22.481-1.579 58.496 1.374 71.064 6.464 27.512 20.434 43.747 42.181 49.018 7.075 1.715 23.928 1.715 31-.001 35.778-8.678 63.908-43.801 85.759-107.078 15.203-44.022 28.336-106.079 34.919-165 1.209-10.821 1.732-23.5 1.732-42 0-25.593-.092-26.842-2.682-36.5-8.416-31.381-26.515-47.736-54.222-48.995-4.953-.225-9.906-.201-11.006.053m-1613 719.296c-14.3 2.005-26.85 4.149-27.89 4.764-2.774 1.641-13.079 49.213-11.105 51.264 1.131 1.174 5.735.764 30.605-2.727 17.142-2.407 29.801-4.637 30.546-5.383 1.673-1.672 12.795-48.154 12.011-50.196-.835-2.178-3.784-1.982-34.167 2.278m618.657.02c-23.091 3.178-26.552 3.886-28.043 5.731-2.007 2.485-11.735 47.335-10.797 49.778.341.89 1.422 1.617 2.402 1.617.979-.001 14.352-1.788 29.718-3.973 18.251-2.595 28.429-4.464 29.358-5.393 2.128-2.128 13.219-48.828 11.966-50.384-1.403-1.743-4.703-1.493-34.604 2.624m1402.598-.015c-18.241 2.525-27.191 4.169-28.148 5.172-.772.808-3.708 12.244-6.525 25.413-4.43 20.709-4.929 24.137-3.699 25.368s5.389.868 30.77-2.679c22.204-3.104 29.63-4.489 30.511-5.691 1.37-1.87 11.517-43.352 11.706-47.856.123-2.929-.074-3.095-3.87-3.258-2.2-.094-16.035 1.494-30.745 3.531M1305.5 1782.594c-38.201 5.419-61.976 16.785-85.221 40.744-26.303 27.11-41.362 64.149-42.958 105.662-1.207 31.392 4.255 55.127 17.143 74.484 18.511 27.804 50.783 42.491 93.408 42.51 27.11.012 58.839-7.783 62.195-15.28.545-1.218 3.824-13.136 7.288-26.486 4.931-19.006 6.027-24.496 5.05-25.306-.905-.752-3.431.334-9.231 3.969-16.296 10.213-30.892 14.461-49.674 14.458-23.814-.004-40.304-8.148-51.467-25.419-21.926-33.925-5.985-99.455 30.532-125.514 14.042-10.02 28.283-14.42 46.632-14.409 18.896.012 33.97 4.858 45.465 14.616 2.949 2.502 5.777 4.146 6.596 3.832 1.656-.636 15.151-45.091 14.583-48.04-.495-2.571-16.902-10.664-28.079-13.851-14.633-4.173-25.391-5.697-42.762-6.055-9.075-.188-17.85-.149-19.5.085m2905.229.861c-36.885 6.47-60.925 26.347-70.247 58.082-5.258 17.899-4.218 35.429 2.967 50.028 7.135 14.498 19.513 24.744 50.051 41.434 8.25 4.509 17.12 9.754 19.71 11.655 9.854 7.234 14.448 16.154 13.53 26.272-1.738 19.167-22.328 31.477-49.74 29.74-18.173-1.151-36.996-8.861-47.794-19.576-3.44-3.414-6.38-5.524-7.403-5.313-1.855.382-2.116 1.168-9.237 27.794-2.511 9.39-4.566 18.058-4.566 19.263 0 4.406 16.492 12.683 35.188 17.659 14.121 3.758 27.811 5.495 43.312 5.495 36.032 0 63.834-9.595 82.943-28.624 25.249-25.143 31.039-66.149 13.058-92.466-8.573-12.546-19.68-21.288-42.521-33.465-31.341-16.71-37.316-22.535-37.362-36.433-.04-11.796 7.025-20.97 20.1-26.101 8.41-3.3 25.674-3.316 36.282-.034 10.684 3.306 21.815 9.371 28.799 15.692 3.949 3.573 6.565 5.24 7.6 4.843.901-.345 2.481-3.671 3.683-7.752 1.158-3.932 4.096-13.856 6.53-22.054 2.433-8.198 4.173-15.697 3.866-16.665-.61-1.921-12.914-8.332-23.978-12.492-15.301-5.754-26.409-7.624-47.5-7.999-13.437-.238-21.916.078-27.271 1.017m-3810.87 3.294c-21.059.234-25.859.546-26.859 1.75-.669.807-4.048 15.312-7.509 32.234-8.935 43.689-15.804 74.159-30.492 135.267-20.189 83.993-20.049 83.361-18.695 84.55 1.603 1.407 64.177.375 65.631-1.082.566-.568 3.712-14.068 6.991-30 17.281-83.975 31.657-147.283 46.204-203.472 2.35-9.078 3.971-17.29 3.603-18.25-.554-1.442-1.764-1.706-6.952-1.514-3.454.128-17.82.361-31.922.517m164.941.238c-45.829.328-72.04.874-72.642 1.513-.517.55-3.495 13.6-6.617 29-10.654 52.548-24.137 111.626-45.102 197.614-3.167 12.987-5.502 24.278-5.19 25.091.495 1.293 10.663 1.422 80.909 1.031 61.151-.341 80.649-.738 81.627-1.662.707-.669 4.253-11.009 7.88-22.979 5.543-18.289 6.375-21.959 5.215-22.992-1.06-.944-7.291-1.064-26.88-.518-44.285 1.233-75.281 1.095-74.747-.335.257-.687 3.568-14.636 7.357-30.996l6.89-29.745 42.139-.005c38.718-.004 42.298-.146 44.094-1.754 2.21-1.978 12.738-36.58 12.111-39.801-.371-1.904-1.403-1.94-44.612-1.552-24.328.218-44.232.069-44.232-.331 0-.837 10.606-47.167 12.091-52.816l.986-3.75h45.339c35.058 0 45.572-.283 46.364-1.25 1.212-1.478 12.22-39.049 12.22-41.708 0-2.403-2.05-3.093-8.332-2.805-2.842.13-37.433.468-76.868.75m209 0c-46.002.329-72.061.873-72.705 1.518-.553.552-4.201 16.527-8.107 35.5-11.368 55.207-24.393 112.141-42.893 187.495-4.165 16.964-6.527 28.43-5.994 29.091 1.276 1.582 160.937.652 162.563-.947.64-.629 4.159-10.996 7.82-23.038 5.439-17.891 6.415-22.108 5.336-23.063-.979-.867-7.907-.985-26.82-.458-14.025.39-36.69.756-50.367.813-23.218.095-24.836-.014-24.41-1.648.251-.963 3.538-14.912 7.306-31l6.849-29.25h42.12c32.124 0 42.523-.297 43.817-1.25 2.089-1.539 13.263-38.801 12.349-41.183-.585-1.525-4.19-1.602-44.765-.952l-44.129.705.689-3.91c.379-2.15 3.255-14.935 6.39-28.41l5.702-24.5 45.675-.5c28.539-.312 46.011-.875 46.568-1.5.491-.55 3.508-10.095 6.705-21.211 6.742-23.447 6.743-23.436-2.371-23.052-3.096.13-37.893.468-77.328.75m209.067-.237c-61.748.227-71.802.467-72.859 1.741-.675.812-4.077 15.381-7.56 32.375-11.525 56.229-23.476 108.572-43.411 190.134-5.42 22.173-6.696 28.75-5.751 29.628 1.703 1.583 160.097.591 162.085-1.015.757-.612 4.35-11.005 7.984-23.096 5.147-17.125 6.335-22.222 5.376-23.063-.858-.753-8.946-.865-26.731-.369-36.124 1.006-75 1.06-75 .103 0-.446 3.15-14.16 7-30.476s7-29.899 7-30.188 19.039-.524 42.309-.524c32.315 0 42.692-.295 43.931-1.25 1.965-1.515 13.227-39.091 12.378-41.303-.53-1.382-5.386-1.473-44.968-.843l-44.374.706 6.595-28.655 6.596-28.655h45.112c41.714 0 45.226-.132 46.64-1.75.841-.963 4.1-10.657 7.241-21.544 6.601-22.873 6.603-22.849-2.332-22.463-3.096.134-37.863.362-77.261.507m2286.633 3.887c-6.6 1.908-19.65 5.266-29 7.462-9.35 2.197-17.566 4.555-18.258 5.241s-3.606 11.69-6.475 24.454L3210.55 1851h-12.153c-8.503 0-12.463.375-13.186 1.25-.569.688-3.345 9.279-6.168 19.093-4.193 14.577-4.905 18.119-3.885 19.347 1.018 1.227 3.517 1.44 13.545 1.157 6.764-.191 12.297-.217 12.297-.058 0 .158-4.471 18.833-9.935 41.5-13.152 54.551-14.731 63.825-12.996 76.337 3.209 23.151 20.291 34.421 52.431 34.592 14.594.078 32.673-2.646 35.059-5.283 2.397-2.649 12.58-38.063 11.365-39.526-.745-.898-2.434-.729-7.041.705-3.655 1.137-9.019 1.886-13.512 1.886-14.959 0-20.022-6.133-17.393-21.068.912-5.174 18.964-82.362 20.566-87.932.367-1.275 2.955-1.448 17.241-1.153 13.205.272 17.047.058 17.917-1 .609-.741 2.484-6.072 4.168-11.847 1.683-5.775 4.181-13.78 5.549-17.789s2.24-7.937 1.936-8.728c-.447-1.166-4.034-1.491-18.877-1.711l-18.325-.272 7.745-30.728c7.223-28.652 7.926-33.11 5.152-32.688-.303.046-5.95 1.644-12.55 3.553m1835.5-.101c-6.325 1.87-19.375 5.249-29 7.508s-18.04 4.637-18.701 5.282c-.898.878-11.299 44.298-11.299 47.169 0 .278-5.57.505-12.378.505-8.726 0-12.659.369-13.332 1.25-.525.688-3.278 9.306-6.118 19.153-4.11 14.25-4.919 18.197-3.965 19.347.957 1.153 3.681 1.374 13.496 1.097 6.764-.191 12.297-.063 12.297.283 0 .347-4.492 19.291-9.982 42.098-11.578 48.098-13.429 58.403-12.782 71.166.605 11.95 3.336 19.083 9.77 25.516 5.73 5.731 10.773 8.337 21.532 11.13 15.689 4.072 50.866 1.956 56.083-3.373 2.83-2.892 12.821-37.429 11.343-39.21-.799-.963-2.335-.821-7.081.657-6.808 2.118-19.739 2.543-23.199.761-3.977-2.048-6.694-5.198-7.697-8.922-1.276-4.741.389-14.464 7.441-43.453 2.943-12.1 7.235-29.875 9.536-39.5l4.185-17.5h34.263l1.234-2.5c2.393-4.851 11.482-35.223 10.953-36.602-.432-1.127-4.109-1.398-18.981-1.398h-18.444l7.816-30.75c5.53-21.753 7.517-31.116 6.791-32-1.276-1.555-.165-1.739-13.781 2.286m-3611 56.12c-22.742 1.702-40.905 7.771-56.621 18.919-8.472 6.01-20.938 19.649-26.712 29.227-12.629 20.951-19.667 46.927-19.667 72.587 0 24.74 6.11 41.741 19.99 55.621 14.875 14.875 35.742 21.985 64.51 21.98 59.545-.009 95.303-30.66 108.623-93.11 3.132-14.683 3.158-40.748.052-52.18-6.308-23.222-24.136-41.162-48.175-48.479-11.091-3.375-30.179-5.45-42-4.565m189 1.962c-6.875 1.313-19.889 3.491-28.92 4.841-9.123 1.363-16.952 3.028-17.617 3.747-.658.712-2.41 9.394-3.892 19.294-4.702 31.4-11.5 62.853-30.203 139.746-3.966 16.307-5.453 24.069-4.745 24.777 1.453 1.453 58.877.063 60.981-1.475 1.07-.783 4.276-14.409 10.373-44.09 4.854-23.627 11.307-53.952 14.339-67.39 6.192-27.433 5.164-25.532 17.068-31.574 5.954-3.022 7.848-3.494 14.016-3.494 11.511 0 16.599 4.145 18.201 14.827 1.16 7.735-3.807 33.524-19.177 99.571-5.704 24.511-7.159 32.217-6.28 33.275.945 1.139 6.092 1.266 29.749.733 24.558-.553 28.835-.875 30.219-2.275 1.042-1.055 3.273-10.113 6.314-25.631 2.586-13.2 7.594-37.067 11.128-53.039 3.534-15.971 7.34-35.096 8.458-42.5 2.321-15.373 2.394-15.484 13.963-21.24 5.47-2.721 7.798-3.272 15-3.552 7.593-.296 8.902-.077 11.971 2.003 5.675 3.845 7.573 8.14 7.435 16.828-.15 9.496-2.817 22.399-16.487 79.758-6.867 28.817-10.767 47.066-10.343 48.402.671 2.115.912 2.136 17.224 1.492 9.1-.358 22.237-.652 29.194-.652 8.558 0 13.191-.404 14.325-1.25 1.237-.922 4.051-12.894 10.734-45.664 4.982-24.428 11.034-53.003 13.449-63.5s4.909-22.911 5.543-27.586c3.144-23.198-4.9-41.825-21.751-50.364-22.596-11.45-54.203-6.199-83.409 13.856l-7.64 5.247-2.323-4.959c-3.552-7.583-12.404-15.226-20.667-17.844-17.865-5.66-44.902.087-63.634 13.527-4.007 2.875-7.743 5.51-8.302 5.855-.56.347-.105-3.772 1.015-9.179 1.118-5.395 1.744-10.558 1.393-11.474-.782-2.036-1.163-2.015-16.702.953m321 0c-6.875 1.313-19.889 3.491-28.92 4.841-9.048 1.352-16.972 3.034-17.649 3.747-.676.712-2.426 9.169-3.888 18.794-5.036 33.143-12.225 66.666-28.222 131.587-4.496 18.249-7.372 31.839-6.962 32.906.648 1.69 1.805 1.772 16.419 1.166 8.647-.359 21.823-.654 29.281-.656 9.265-.002 14.099-.399 15.266-1.253 1.271-.931 3.745-11.198 9.696-40.25 4.393-21.45 10.794-51.6 14.223-67 7.073-31.763 6.265-30.171 18.357-36.147 6.825-3.374 7.683-3.552 15.401-3.201 7.933.36 8.27.478 11.512 4.015 3.356 3.662 5.47 9.056 5.48 13.984.016 7.381-7.843 45.81-19.94 97.512-3.882 16.589-6.78 30.888-6.439 31.775.557 1.454 3.458 1.55 29.252.971 20.105-.452 29.229-1.014 30.633-1.888 1.665-1.035 2.891-5.752 7.312-28.133 2.922-14.788 7.95-38.813 11.174-53.388s6.59-31.225 7.482-37l2.118-13.731c.378-2.455 1.621-4.004 5.182-6.453 7.976-5.488 14.796-7.766 23.334-7.792 8.985-.028 12.949 2.031 16.311 8.476 4.253 8.151 2.723 17.635-14.488 89.819-6.009 25.201-10.925 46.662-10.925 47.691s.425 2.134.944 2.455c1.714 1.06 59.016-.714 60.584-1.875.971-.72 4.164-14.515 9.395-40.59 4.358-21.725 10.622-51.65 13.92-66.5 6.843-30.814 7.655-37.039 6.195-47.5-3.377-24.189-21.913-38.501-49.538-38.251-18.325.166-36.593 6.645-55.621 19.724l-7.62 5.239-2.146-4.416c-7.3-15.027-24.219-22.731-44.368-20.205-15.355 1.926-29.633 7.605-42.188 16.782-3.818 2.791-7.029 4.974-7.134 4.851s.722-4.565 1.839-9.871c1.117-5.305 1.754-10.368 1.416-11.25-.756-1.969-1.193-1.942-16.678 1.015m537.5-.466c-4.95 1.073-17.514 3.22-27.919 4.771-13.465 2.007-19.247 3.268-20.056 4.374-.625.855-2.382 10.25-3.905 20.878-3.929 27.424-10.86 61.272-23.49 114.71-6.03 25.512-10.723 47.013-10.428 47.78.449 1.17 5.311 1.29 30.166.746 25.474-.557 29.865-.877 31.296-2.28 1.132-1.11 3.466-10.739 7.304-30.131 3.101-15.675 9.315-45.782 13.809-66.905l8.17-38.406 5.432-3.475c7.759-4.963 14.893-7.215 22.846-7.21 7.815.004 11.437 1.72 15.852 7.509 3.462 4.539 4.204 11.681 2.462 23.713-1.699 11.742-9.724 49.197-18.056 84.274-4.77 20.085-6.824 30.486-6.213 31.471.776 1.253 5.213 1.424 29.82 1.152 15.9-.176 29.641-.712 30.537-1.191 1.227-.656 3.275-9.318 8.313-35.152 3.677-18.854 8.445-41.992 10.596-51.419 7.437-32.585 9.228-43.768 9.351-58.361.098-11.659-.197-14.387-2.162-20-7.284-20.808-28.565-31.711-55.018-28.189-14.435 1.921-25.39 6.227-38.957 15.309-3.988 2.67-7.25 4.394-7.25 3.831s.967-4.877 2.148-9.587c2.906-11.588 2.352-11.899-14.648-8.212m221.5-.118c-5.225 1.026-18.95 3.244-30.5 4.928-14.31 2.086-21.346 3.525-22.085 4.515-.597.8-1.852 6.982-2.79 13.738-3.332 24.003-17.146 87.369-31.018 142.282-4.899 19.392-6.262 26.214-5.435 27.211.897 1.08 6.853 1.207 31.716.675 16.837-.361 31.344-1.03 32.238-1.488 1.178-.603 2.099-3.943 3.341-12.114 4.076-26.815 17.322-89.01 31.636-148.549 3.87-16.098 6.888-30.048 6.707-31-.448-2.35-2.699-2.382-13.81-.198m124.068-.922c-42.927 3.814-77.58 30.933-91.863 71.888-5.56 15.942-6.706 22.981-6.675 41 .034 19.817 1.997 29.273 9.122 43.951 3.837 7.904 6.002 10.865 13.221 18.084 7.162 7.162 10.249 9.429 18.13 13.309 15.127 7.448 22.338 8.969 42.997 9.07 11.232.055 20.007-.411 24.5-1.301 8.945-1.773 20.508-5.828 22.696-7.96 1.418-1.383 12.804-41.273 12.804-44.86 0-2.518-3.513-2.264-7.432.537-11.346 8.108-23.225 11.639-36.688 10.906-19.6-1.068-33.583-13.995-36.985-34.192-1.403-8.326-.607-23.497 1.681-32.044 5.442-20.328 19.474-37.508 35.699-43.708 7.513-2.87 18.765-3.429 27.943-1.387 8.449 1.88 14.961 5.574 20.358 11.547 2.011 2.227 3.942 4.041 4.29 4.033 2.188-.053 3.71-3.73 9.281-22.415l6.219-20.855-2.43-1.968c-12.34-9.992-41.333-15.905-66.868-13.635M3382 1848.12c-5.225 1.045-18.687 3.223-29.915 4.841-13.3 1.916-20.928 3.453-21.886 4.412-.91.909-2.372 7.425-3.829 17.061-3.949 26.119-18.558 92.432-31.297 142.066-4.646 18.102-5.645 23.269-4.691 24.261 1.571 1.635 61.868.532 64.11-1.173.914-.695 2.548-7.777 4.52-19.588 4.941-29.605 23.11-112.844 34.474-157.943 4.471-17.74 4.903-17.215-11.486-13.937m122.437-1.112c-48.026 4.074-81.517 34.385-94.463 85.492-7.167 28.294-5.86 54.323 3.74 74.5 4.978 10.462 17.622 23.07 28.415 28.333 12.022 5.863 24.825 8.725 41.986 9.386 33.654 1.295 57.858-6.058 78.609-23.881 23.534-20.214 38.501-57.728 38.434-96.338-.029-16.655-1.981-26.311-7.731-38.23-7.927-16.434-21.942-28.111-41.145-34.28-14.495-4.657-31.186-6.395-47.845-4.982M3696 1848.57c-6.325 1.287-18.7 3.33-27.5 4.54-11.187 1.538-16.541 2.702-17.798 3.87-1.354 1.259-2.397 5.797-4.229 18.405-5.024 34.567-8.784 53.063-23.646 116.301-6.1 25.952-10.793 47.959-10.43 48.905.6 1.565 2.078 1.661 16.381 1.068 8.647-.359 21.823-.654 29.281-.656 9.282-.002 14.087-.397 15.235-1.253 1.234-.92 3.779-11.676 9.645-40.75 13.557-67.203 19.858-95.121 21.814-96.644.961-.748 5.098-3.047 9.195-5.108 13.493-6.79 27.871-5.469 33.103 3.042 3.525 5.733 4.17 10.1 2.966 20.05-1.418 11.713-9.186 48.595-18.569 88.16-5.644 23.801-7.072 31.246-6.15 32.06 1.765 1.557 59.187.361 60.811-1.266.662-.664 4.694-18.664 8.961-40 4.266-21.337 9.579-47.119 11.806-57.294 7.297-33.346 9.017-50.606 6.217-62.382-5.22-21.953-25.347-34.922-51.593-33.244-15.46.989-28.628 5.679-43.5 15.494-4.125 2.722-7.572 4.878-7.659 4.791-.087-.088.754-4.082 1.869-8.877 1.116-4.794 1.764-9.407 1.441-10.25-.766-1.994-3.56-1.83-17.651 1.038m217.585-1.529c-9.756 1.531-20.634 4.844-28.585 8.707-10.557 5.13-22.344 16.897-27.313 27.267-8.277 17.276-8.871 35.903-1.599 50.158 2.798 5.484 10.154 13.23 16.912 17.809 3.025 2.049 12.728 7.377 21.562 11.839 21.318 10.767 25.438 14.782 25.438 24.794 0 10.124-7.639 17.045-21.473 19.454-17.828 3.104-37.613-3.082-51.991-16.257-3.8-3.482-7.219-5.827-8.215-5.635-1.284.247-3.014 4.797-6.968 18.326-2.893 9.898-5.281 19.229-5.307 20.734-.036 2.154.86 3.313 4.204 5.436 9.534 6.052 26.515 11.909 41.75 14.4 9.643 1.577 34.2 1.557 44.5-.037 28.277-4.376 49.803-18.433 59.145-38.626 3.579-7.735 6.356-19.918 6.343-27.82-.04-24.163-13.377-39.622-48.214-55.889-17.845-8.333-23.394-13.896-22.556-22.613 1.325-13.79 19.078-20.511 40.026-15.153 10.372 2.652 16.544 5.999 24.105 13.072 7.332 6.86 9.068 6.964 10.699.64 2.583-10.017 6.092-22.612 7.842-28.147 1.331-4.208 1.61-6.542.933-7.816-1.586-2.988-17.554-9.219-32.823-12.808-9.784-2.3-38.509-3.389-48.415-1.835m500.415.051c-37.79 3.229-66.693 23.03-83.801 57.408-10.848 21.799-16.47 50.673-14.204 72.95 2.136 21.003 8.622 35.325 21.401 47.259 13.838 12.924 31.132 19.025 56.719 20.01 28.924 1.113 49.276-3.711 68.539-16.244 15.776-10.264 29.596-27.394 36.971-45.826 13.944-34.851 15.661-73.072 4.317-96.114-11.428-23.214-34.135-36.596-67.039-39.509-6.272-.555-11.853-.95-12.403-.878-.55.073-5.275.497-10.5.944m218.854-.059c-43.442 3.946-77.308 30.425-91.903 71.857-5.199 14.762-7.202 26.053-7.202 40.61 0 44.304 20.864 73.078 60.251 83.093 10.354 2.633 37.749 2.685 49.846.094 10.043-2.15 18.768-5.301 21.078-7.611.97-.97 3.915-10.221 6.888-21.635 2.857-10.968 5.459-20.91 5.782-22.095 1.133-4.144-2.741-3.74-9.85 1.027-10.169 6.819-18.016 9.105-31.296 9.117-10.768.01-11.247-.087-18.652-3.746-15.202-7.513-21.796-20.035-21.796-41.389 0-17.162 3.756-30.202 12.478-43.322 7.836-11.786 17.927-19.341 30.057-22.5 15.667-4.081 34.095.559 43.171 10.87 6.406 7.278 6.826 6.759 13.924-17.187 3.371-11.374 5.908-21.257 5.637-21.962-.731-1.907-12.569-8.246-19.321-10.348-13.403-4.171-34.145-6.23-49.092-4.873m151.146 1.11c-5.225 1.051-18.703 3.242-29.951 4.87-11.538 1.67-20.958 3.51-21.615 4.223-.64.695-2.324 8.935-3.742 18.31-3.851 25.475-15.646 79.25-29.75 135.644-3.809 15.23-6.651 28.405-6.316 29.279.547 1.423 3.84 1.521 31.742.941 26.894-.56 31.352-.87 32.745-2.279 1.045-1.056 2.401-6.563 3.849-15.631 4.431-27.751 16.79-85.494 30.677-143.32 4.137-17.225 7.275-31.963 6.973-32.75-.684-1.782-2.699-1.683-14.612.713m121.22-1.093c-32.941 3.274-59.331 19.656-76.919 47.749-8.638 13.799-15.529 32.859-18.319 50.675-1.636 10.448-1.348 31.827.553 41.101 5.693 27.762 24.513 47.533 51.79 54.409 26.721 6.736 62.847 5.101 86.832-3.929 9.578-3.605 12.155-5.879 13.707-12.094.75-3.004 3.381-12.886 5.846-21.961s4.552-16.879 4.636-17.343-.542-1.304-1.393-1.867c-1.178-.78-2.956-.124-7.444 2.747-15.253 9.757-32.341 15.335-49.557 16.175-23.665 1.155-37.442-4.074-44.471-16.879-2.608-4.75-2.97-6.49-3.31-15.925l-.381-10.593 9.855-.652c5.42-.359 31.005-.669 56.855-.69 36.041-.028 47.384-.328 48.645-1.288 1.016-.773 2.464-5.207 3.789-11.602 9.146-44.132.997-73.539-24.434-88.185-13.61-7.837-36.396-11.825-56.28-9.848M2310 1850.657c-14.575.759-27.469 1.875-28.654 2.479-1.54.786-2.348 2.419-2.833 5.732-1.891 12.918-11.603 56.87-21.454 97.091-10.381 42.388-7.089 65.153 11.465 79.283 2.862 2.179 8.375 4.919 12.976 6.449 10.938 3.637 27.098 3.826 39 .457 10.562-2.99 20.977-8.075 29.044-14.181 3.609-2.732 6.717-4.967 6.907-4.967s-.529 3.409-1.596 7.577c-3.189 12.449-5.354 11.595 27.473 10.837 24.167-.559 28.398-.883 29.761-2.283 1.005-1.031 3.513-11.185 6.825-27.631 6.996-34.746 12.923-61.301 25.521-114.346 7.97-33.56 10.287-44.804 9.525-46.228-.812-1.517-1.824-1.792-5.233-1.419-2.325.255-15.027.94-28.227 1.524-13.2.583-24.956 1.536-26.124 2.116-1.856.923-2.779 4.359-7.312 27.205-2.853 14.381-9.025 44.148-13.716 66.148-7.19 33.721-8.868 40.277-10.688 41.767-1.188.972-5.95 3.672-10.582 6-8.085 4.063-8.792 4.233-17.655 4.233-8.797 0-9.412-.144-13.077-3.064-5.752-4.583-7.675-9.256-7.547-18.336.147-10.468 2.568-22.264 15.782-76.897 8.914-36.859 11.208-47.728 10.394-49.25-.575-1.074-1.592-1.891-2.26-1.815s-13.14.759-27.715 1.519m2873.5-.614c-6.05.386-16.947.76-24.215.83-11.593.111-13.332.347-14.172 1.916-.656 1.225-.045 7.76 1.939 20.75 3.244 21.237 11.574 82.854 18.444 136.435l4.549 35.473-6.698 11.027c-3.683 6.064-15.366 24.448-25.961 40.853-11.676 18.08-19.038 30.416-18.691 31.321.493 1.284 4.364 1.448 27.689 1.172 17.33-.204 27.785-.716 28.97-1.418 1.02-.604 10.387-17.704 20.815-38s22.968-44.141 27.867-52.989c16.049-28.988 88.792-154.745 100.246-173.304 5.474-8.869 6.805-11.747 6.016-12.999-.897-1.422-3.873-1.566-25.841-1.252-15.422.221-25.482.765-26.556 1.436-.952.594-6.741 11.459-12.864 24.143-12.371 25.623-47.244 93.505-48.056 93.54-.481.021-4.637-58.006-7.125-99.477-.594-9.9-1.535-18.562-2.09-19.25-1.09-1.348-5.769-1.388-24.266-.207m-2111.798 1.045c-18.461 1.524-37.59 6.339-50.202 12.637-32.111 16.037-54.658 46.752-62.459 85.087-6.955 34.18-.498 64.349 17.3 80.839 10.507 9.735 22.787 14.411 38.159 14.531 16.243.126 32.764-4.935 45.173-13.838l7.565-5.428-.592 3.292c-1.422 7.9-1.66 11.375-.861 12.56 1.106 1.64 54.097.537 56.383-1.174.967-.724 2.57-7.862 4.738-21.094 5.714-34.866 10.603-57.372 30.67-141.177 4.849-20.251 5.577-24.433 4.484-25.75-1.15-1.387-6.003-1.556-40.932-1.433-21.796.077-44.037.504-49.426.948m1837.099 31.929c-11.645 1.989-23.419 12.27-30.383 26.529-2.43 4.975-4.418 9.813-4.418 10.75 0 1.569 2.485 1.704 31.383 1.704h31.384l.62-2.25c1.506-5.463 1.849-16.836.638-21.162-3.247-11.596-15.203-17.966-29.224-15.571m-3416.361 2.862c-18.494 4.781-30.274 23.636-38.148 61.062-2.096 9.959-2.657 15.457-2.713 26.559-.064 12.839.125 14.373 2.286 18.5 3.054 5.835 6.667 9.664 11.635 12.33 3.185 1.709 5.732 2.148 12.5 2.158 7.556.011 9.092-.316 13.829-2.94 16.114-8.926 27.236-31.147 32.759-65.445 1.979-12.292 2.003-29.143.05-35.45-3.53-11.401-10.408-16.785-22.061-17.271-3.892-.162-8.454.062-10.137.497m2012.06.923c-17.502 6.08-27.862 23.576-35.644 60.198-1.735 8.163-2.246 13.949-2.294 26-.061 15.36-.035 15.548 2.9 20.848 5.02 9.062 14.65 13.888 25.858 12.959 16.344-1.356 30.719-17.657 38.134-43.246 5.348-18.454 6.886-28.179 6.968-44.061.071-13.732-.122-15.443-2.292-20.242-2.83-6.262-8.553-11.726-13.809-13.186-5.619-1.56-14.13-1.247-19.821.73m910.596-.295c-17.491 5.453-28.639 24.206-36.203 60.9-2.645 12.835-3.611 32.434-1.94 39.399 2.846 11.861 11.517 19.081 23.947 19.937 9.68.668 16.798-2.262 24.674-10.155 7.535-7.553 12.364-16.093 16.859-29.813 5.685-17.356 7.993-31.08 8.032-47.775.032-13.155-.185-14.986-2.335-19.742-2.83-6.262-8.553-11.726-13.809-13.186-5.163-1.433-13.864-1.237-19.225.435m-1344.685 4.977c-7.393 1.608-16.283 5.976-23.047 11.323-22.732 17.968-35.407 64.413-23.82 87.279 4.577 9.032 11.965 13.211 23.283 13.169 6.349-.023 8.287-.501 14.52-3.582 3.957-1.955 8.18-4.605 9.385-5.888 1.757-1.87 4.362-11.84 13.143-50.309 6.024-26.387 11.265-49.213 11.647-50.726l.695-2.75-9.859.079c-5.422.044-12.598.676-15.947 1.405" fill-rule="evenodd"/></g></svg>